<?xml version="1.0" encoding="iso-8859-1"?>
<!-- Generator: Adobe Illustrator 19.0.0, SVG Export Plug-In . SVG Version: 6.00 Build 0)  -->
<svg xmlns="http://www.w3.org/2000/svg" xmlns:xlink="http://www.w3.org/1999/xlink" version="1.1" id="Layer_1" x="0px" y="0px" viewBox="0 0 512 512" style="enable-background:new 0 0 512 512;" xml:space="preserve" width="512px" height="512px">
<g>
	<g>
		<path d="M511.711,69.517c-1.247-5.548-6.297-9.469-11.94-9.279c-60.987,1.776-118.089,26.375-160.995,67.883    c13.153-28.4,33.859-53.114,60.357-71.221c4.705-3.208,6.463-9.302,4.206-14.53c-2.257-5.227-7.9-8.102-13.46-6.891    c-48.963,10.798-89.794,39.577-116.624,78.196c-8.619-20.158-20.511-38.96-35.075-55.303    c-20.767-23.309-47.082-41.712-76.093-53.224c-5.299-2.091-11.334-0.143-14.399,4.657c-3.065,4.788-2.293,11.084,1.83,15.005    c34.304,32.598,54.685,77.367,57.343,123.891c-21.065-22.305-45.888-41.147-73.06-55.293    C96.352,73.914,54.26,63.257,12.062,62.616c-5.643-0.095-10.645,3.873-11.809,9.445C-0.912,77.632,2.035,83.24,7.286,85.45    c75.85,31.862,131.467,96.997,151.113,175.94h-9.145c-11.091,0-20.116,9.024-20.116,20.116v42.384    c0,11.093,9.024,20.117,20.116,20.117h3.853l21.855,153.473c0.834,5.855,5.847,10.205,11.761,10.205h156.732    c5.915,0,10.927-4.351,11.761-10.205l21.855-153.473h3.853c11.091,0,20.116-9.024,20.116-20.117v-42.384    c0-11.091-9.024-20.116-20.116-20.116h-10.13C381,182.741,431.675,114.946,504.867,83.002    C510.083,80.732,512.958,75.077,511.711,69.517z M338.401,82.609c-20.219,27.047-33.387,59.039-37.845,93.128    c-0.324,0.526-0.652,1.051-0.968,1.581c-14.732,24.426-24.889,50.848-30.283,78.766c-1.832-6.047-3.9-12.03-6.16-17.914    C257.758,174.932,288.019,115.885,338.401,82.609z M205.734,59.643c24.073,21.45,42.301,49.329,52.017,80.627    c-8.013,16.673-13.672,34.586-16.631,53.249c-3.462-5.654-7.109-11.196-10.979-16.592c2.668-30.567-1.536-61.793-12.253-90.6    C214.478,77.167,210.403,68.245,205.734,59.643z M72.556,94.929c17.405,4.681,34.298,11.239,50.265,19.555    c33.467,17.417,63.037,42.626,85.562,72.921c0.737,0.986,1.473,1.996,2.198,2.994c11.901,16.54,21.711,34.479,29.223,53.34    c0.264,1.793,0.914,3.438,1.865,4.86c1.578,4.221,3.06,8.484,4.408,12.789h-63.263C167.459,193.654,127.995,134.815,72.556,94.929    z M377.278,285.149v35.094h0h-49.481c-6.56,0-11.88,5.32-11.88,11.88s5.32,11.88,11.88,11.88h25.274L333.147,483.92H197.031    l-19.924-139.917h92.221c6.56,0,11.88-5.32,11.88-11.88s-5.32-11.88-11.88-11.88H152.899v-35.094H377.278z M346.842,261.388    h-54.333c4.819-25.457,14.007-49.557,27.43-71.797c0.546-0.903,2.103-3.433,2.103-3.433    c27.812-44.207,69.82-76.331,118.102-91.835C388.704,134.986,354.652,194.779,346.842,261.388z" fill="#02b3e4"/>
	</g>
</g>
<g>
</g>
<g>
</g>
<g>
</g>
<g>
</g>
<g>
</g>
<g>
</g>
<g>
</g>
<g>
</g>
<g>
</g>
<g>
</g>
<g>
</g>
<g>
</g>
<g>
</g>
<g>
</g>
<g>
</g>
</svg>
